<svg id="visual" viewBox="0 0 900 600" width="900" height="600" xmlns="http://www.w3.org/2000/svg" xmlns:xlink="http://www.w3.org/1999/xlink" version="1.1"><rect x="0" y="0" width="900" height="600" fill="#001220"></rect><defs><linearGradient id="grad1_0" x1="33.3%" y1="0%" x2="100%" y2="100%"><stop offset="20%" stop-color="#001220" stop-opacity="1"></stop><stop offset="80%" stop-color="#001220" stop-opacity="1"></stop></linearGradient></defs><defs><linearGradient id="grad2_0" x1="0%" y1="0%" x2="66.7%" y2="100%"><stop offset="20%" stop-color="#001220" stop-opacity="1"></stop><stop offset="80%" stop-color="#001220" stop-opacity="1"></stop></linearGradient></defs><g transform="translate(900, 0)"><path d="M0 486.7C-47.7 443 -95.4 399.2 -158.4 382.5C-221.4 365.8 -299.7 376.3 -344.2 344.2C-388.7 312.1 -399.5 237.4 -417.6 173C-435.7 108.5 -461.2 54.3 -486.7 0L0 0Z" fill="#FBAE3C"></path></g><g transform="translate(0, 600)"><path d="M0 -486.7C41 -430.7 81.9 -374.7 149.6 -361.2C217.3 -347.8 311.8 -376.9 344.2 -344.2C376.6 -311.5 346.9 -216.9 360.3 -149.2C373.7 -81.6 430.2 -40.8 486.7 0L0 0Z" fill="#FBAE3C"></path></g></svg>