<svg id="visual" viewBox="0 0 900 600" width="900" height="600" xmlns="http://www.w3.org/2000/svg" xmlns:xlink="http://www.w3.org/1999/xlink" version="1.1"><rect x="0" y="0" width="900" height="600" fill="#001220"></rect><path d="M0 433L21.5 425.5C43 418 86 403 128.8 402.5C171.7 402 214.3 416 257.2 424.3C300 432.7 343 435.3 385.8 436.2C428.7 437 471.3 436 514.2 426C557 416 600 397 642.8 398.5C685.7 400 728.3 422 771.2 418.3C814 414.7 857 385.3 878.5 370.7L900 356L900 601L878.5 601C857 601 814 601 771.2 601C728.3 601 685.7 601 642.8 601C600 601 557 601 514.2 601C471.3 601 428.7 601 385.8 601C343 601 300 601 257.2 601C214.3 601 171.7 601 128.8 601C86 601 43 601 21.5 601L0 601Z" fill="#fa7268"></path><path d="M0 398L21.5 402.7C43 407.3 86 416.7 128.8 419.5C171.7 422.3 214.3 418.7 257.2 423.7C300 428.7 343 442.3 385.8 447.8C428.7 453.3 471.3 450.7 514.2 450C557 449.3 600 450.7 642.8 446.7C685.7 442.7 728.3 433.3 771.2 437.2C814 441 857 458 878.5 466.5L900 475L900 601L878.5 601C857 601 814 601 771.2 601C728.3 601 685.7 601 642.8 601C600 601 557 601 514.2 601C471.3 601 428.7 601 385.8 601C343 601 300 601 257.2 601C214.3 601 171.7 601 128.8 601C86 601 43 601 21.5 601L0 601Z" fill="#ef5f67"></path><path d="M0 442L21.5 441.7C43 441.3 86 440.7 128.8 445.3C171.7 450 214.3 460 257.2 464C300 468 343 466 385.8 471.2C428.7 476.3 471.3 488.7 514.2 484.8C557 481 600 461 642.8 460C685.7 459 728.3 477 771.2 481.5C814 486 857 477 878.5 472.5L900 468L900 601L878.5 601C857 601 814 601 771.2 601C728.3 601 685.7 601 642.8 601C600 601 557 601 514.2 601C471.3 601 428.7 601 385.8 601C343 601 300 601 257.2 601C214.3 601 171.7 601 128.8 601C86 601 43 601 21.5 601L0 601Z" fill="#e34c67"></path><path d="M0 491L21.5 498C43 505 86 519 128.8 523.5C171.7 528 214.3 523 257.2 516.8C300 510.7 343 503.3 385.8 502.3C428.7 501.3 471.3 506.7 514.2 511.7C557 516.7 600 521.3 642.8 522.5C685.7 523.7 728.3 521.3 771.2 516.2C814 511 857 503 878.5 499L900 495L900 601L878.5 601C857 601 814 601 771.2 601C728.3 601 685.7 601 642.8 601C600 601 557 601 514.2 601C471.3 601 428.7 601 385.8 601C343 601 300 601 257.2 601C214.3 601 171.7 601 128.8 601C86 601 43 601 21.5 601L0 601Z" fill="#d53867"></path><path d="M0 565L21.5 560C43 555 86 545 128.8 543.3C171.7 541.7 214.3 548.3 257.2 552.5C300 556.7 343 558.3 385.8 560C428.7 561.7 471.3 563.3 514.2 557.7C557 552 600 539 642.8 537.7C685.7 536.3 728.3 546.7 771.2 552.8C814 559 857 561 878.5 562L900 563L900 601L878.5 601C857 601 814 601 771.2 601C728.3 601 685.7 601 642.8 601C600 601 557 601 514.2 601C471.3 601 428.7 601 385.8 601C343 601 300 601 257.2 601C214.3 601 171.7 601 128.8 601C86 601 43 601 21.5 601L0 601Z" fill="#c62368"></path></svg>